<?xml version="1.0" standalone="no"?>
<!DOCTYPE svg PUBLIC "-//W3C//DTD SVG 20010904//EN"
 "http://www.w3.org/TR/2001/REC-SVG-20010904/DTD/svg10.dtd">
<svg version="1.0" xmlns="http://www.w3.org/2000/svg"
 width="552.000000pt" height="552.000000pt" viewBox="0 0 552.000000 552.000000"
 preserveAspectRatio="xMidYMid meet">
<metadata>
Created by potrace 1.14, written by Peter Selinger 2001-2017
</metadata>
<g transform="translate(0.000000,552.000000) scale(0.100000,-0.100000)"
fill="#000000" stroke="none">
<path d="M1447 4764 c-1 -1 -20 -4 -42 -8 -22 -3 -50 -8 -63 -10 -38 -8 -125
-52 -149 -75 -13 -12 -23 -19 -23 -16 0 13 -92 -88 -112 -122 -20 -37 -190
-365 -251 -487 -37 -75 -45 -127 -22 -146 23 -19 457 -20 525 -1 50 14 83 46
102 97 7 19 15 34 19 34 4 0 9 10 13 23 6 26 54 57 89 57 36 0 66 -36 128
-157 125 -244 218 -422 253 -485 20 -38 33 -68 29 -68 -4 0 -3 -4 3 -8 6 -4
22 -29 36 -57 14 -27 58 -113 98 -190 40 -77 112 -216 160 -310 83 -164 110
-214 202 -376 7 -13 15 -26 18 -29 7 -7 35 -59 99 -185 31 -60 60 -113 66
-117 5 -4 6 -8 1 -8 -5 0 -3 -8 5 -17 8 -10 26 -40 39 -68 14 -27 27 -52 30
-55 3 -3 24 -43 46 -90 23 -47 70 -143 105 -215 35 -71 67 -131 71 -133 4 -2
8 -10 8 -17 0 -25 76 -93 116 -104 34 -9 181 -23 239 -23 51 0 184 14 217 23
44 11 67 47 64 99 -3 47 -27 96 -142 293 -19 32 -34 60 -34 62 0 2 -17 32 -37
67 -20 35 -54 95 -74 133 -83 155 -113 212 -132 250 -11 22 -24 43 -29 46 -5
3 -10 9 -9 12 0 11 -28 69 -69 142 -22 39 -52 95 -67 125 -15 30 -32 58 -38
62 -5 4 -6 8 -1 8 5 0 4 6 -1 13 -6 6 -36 62 -68 122 -32 61 -82 155 -112 210
-29 55 -65 125 -81 155 -15 30 -29 57 -32 60 -3 3 -15 25 -28 50 -13 25 -37
69 -53 98 -17 28 -27 52 -22 52 4 0 3 4 -2 8 -13 8 -238 458 -235 468 1 4 -2
10 -7 13 -11 8 -84 151 -77 151 3 0 -2 7 -10 16 -9 8 -16 21 -16 29 0 7 -3 15
-7 17 -5 2 -41 68 -81 148 -41 79 -89 167 -107 195 -31 46 -135 153 -135 138
0 -3 -8 1 -17 9 -54 48 -193 87 -321 91 -40 1 -74 2 -75 1z"/>
<path d="M3066 3703 c-2 -2 -23 -6 -47 -8 -24 -2 -53 -6 -64 -9 -11 -2 -26 -5
-32 -5 -7 -1 -20 -15 -29 -33 -32 -61 -12 -120 126 -373 62 -115 138 -265 134
-265 -3 0 0 -6 6 -12 6 -7 32 -56 59 -108 93 -184 184 -355 190 -360 3 -3 23
-39 44 -80 41 -83 129 -251 197 -375 24 -44 62 -116 84 -160 22 -44 43 -82 46
-85 5 -5 12 -19 50 -105 39 -86 34 -111 -54 -290 -43 -88 -84 -163 -90 -167
-6 -4 -8 -8 -4 -8 3 0 -28 -69 -69 -152 -88 -176 -101 -233 -63 -280 31 -40
122 -60 270 -58 153 2 210 19 265 82 17 18 41 56 55 83 14 28 28 52 31 55 3 3
31 55 61 115 132 262 174 340 183 347 7 5 7 8 0 8 -6 0 -5 3 1 8 6 4 20 25 31
47 55 110 134 261 143 272 5 7 10 18 10 25 0 8 6 22 14 33 7 11 43 76 78 145
36 69 87 166 113 215 26 50 95 182 153 295 58 113 111 216 119 230 8 14 30 52
49 85 19 33 55 101 80 150 25 50 49 97 54 105 5 8 27 51 48 95 22 44 71 142
110 217 102 199 110 264 38 301 -35 18 -59 20 -228 21 -105 1 -192 -2 -194 -6
-3 -4 -11 -5 -19 -2 -27 11 -80 -34 -111 -93 -60 -115 -89 -168 -102 -181 -7
-8 -10 -17 -7 -22 3 -5 2 -10 -2 -12 -5 -1 -19 -28 -33 -58 -13 -30 -37 -77
-52 -103 -16 -26 -28 -54 -28 -62 0 -7 -4 -15 -9 -17 -5 -1 -20 -28 -34 -58
-15 -30 -43 -84 -63 -120 -20 -36 -50 -92 -66 -125 -16 -33 -34 -69 -40 -80
-7 -11 -44 -83 -83 -160 -74 -145 -132 -251 -146 -269 -39 -50 -58 -69 -59
-60 0 6 -12 29 -26 50 -26 38 -66 111 -191 354 -36 69 -69 130 -73 135 -6 9
-72 131 -131 245 -10 19 -50 100 -89 180 -39 79 -76 148 -83 152 -7 4 -9 8 -4
8 4 0 -4 18 -18 40 -14 22 -25 46 -25 55 0 8 -4 15 -10 15 -5 0 -12 11 -16 25
-3 14 -10 25 -15 25 -5 0 -9 6 -9 14 0 8 -7 22 -16 30 -8 9 -12 16 -8 16 14 0
-57 61 -84 71 -24 10 -308 20 -316 12z"/>
<path d="M797 3574 c-1 -1 -25 -4 -53 -7 -54 -5 -182 -51 -199 -71 -5 -7 -20
-19 -33 -28 -71 -48 -146 -134 -182 -207 -135 -273 -84 -608 124 -817 124
-124 226 -172 426 -201 14 -2 180 -5 371 -7 317 -2 348 -4 384 -22 48 -23 65
-53 65 -119 0 -91 -45 -136 -150 -150 -69 -10 -690 -11 -790 -2 -140 13 -222
36 -309 88 -94 57 -175 143 -244 261 -58 98 -83 119 -122 104 -16 -6 -45 -64
-51 -101 -2 -11 -6 -31 -9 -45 -3 -14 -9 -68 -12 -121 -5 -83 -2 -109 21 -199
30 -116 59 -177 127 -265 49 -62 83 -96 117 -114 11 -6 26 -17 34 -23 15 -15
132 -73 165 -82 51 -15 117 -25 208 -31 33 -3 101 -7 150 -10 121 -9 569 -9
675 -1 124 10 257 34 315 58 63 27 189 111 235 157 42 42 111 143 128 186 6
17 17 44 23 60 7 17 13 37 14 45 7 41 17 85 20 89 2 2 0 12 -5 22 -6 10 -6 20
-2 23 6 4 8 101 2 101 -1 0 -3 14 -4 30 -5 72 -88 277 -119 297 -7 4 -8 8 -4
8 4 0 -10 18 -31 40 -22 21 -37 42 -34 45 3 3 1 5 -5 5 -5 0 -24 12 -41 28
-53 47 -60 52 -139 91 -123 61 -149 64 -533 67 -190 1 -362 5 -383 8 -68 9
-123 43 -140 84 -17 40 -14 155 3 160 6 2 10 10 10 17 0 15 51 41 100 51 19 4
216 8 436 8 310 1 405 5 417 15 27 22 16 73 -40 186 -108 220 -134 262 -171
277 -18 7 -156 11 -395 12 -203 0 -369 0 -370 0z"/>
</g>
</svg>
